<svg width="100" height="100" viewBox="0 0 100 100" fill="none" xmlns="http://www.w3.org/2000/svg">
<path fill-rule="evenodd" clip-rule="evenodd" d="M41.4961 4.97866C48.4085 6.6214 61.0514 10.0457 69.0168 7.87018C65.0913 10.0067 61.6012 10.0637 57.4432 10.0816C56.9915 10.3553 56.4547 10.6509 57.1172 11.608C57.7802 12.5652 61.326 14.8935 61.326 14.8935C56.628 13.0615 55.7288 11.6455 54.509 11.1392C53.7658 10.8301 48.2655 6.95544 37.5841 8.63363C35.3247 8.98815 33.4142 9.57734 29.89 11.7019C29.5601 11.9001 29.753 11.1097 29.3559 11.2071L41.4961 4.97866ZM5.98071 36.4629C6.94366 37.8195 8.54965 37.0386 14.8305 32.4569C18.0481 30.1106 21.3329 28.8274 24.6433 27.8597L24.6454 27.8587C26.4579 27.0423 26.7954 25.2967 27.8251 23.8277C28.8548 22.3593 32.2257 20.9137 32.2257 20.9137C32.2257 20.9137 29.5357 22.6998 28.6425 24.7475C28.2828 25.5718 28.0418 26.3518 27.8814 26.9899C33.0307 25.6852 38.2092 24.5567 43.2614 20.8234C37.798 28.4049 24.8296 27.8053 18.6541 33.79C18.6541 33.79 23.5621 38.7487 29.5682 39.3424C35.5744 39.9361 39.0244 41.4425 39.0244 41.4425C39.0244 41.4425 34.7928 40.9043 29.2893 40.7854C27.2558 40.7415 23.951 39.2585 25.9206 41.0171C27.6063 42.5215 29.026 44.1063 30.0558 46.0632C30.0558 46.0632 27.1404 42.7937 23.9353 40.6341C20.7298 38.4746 20.2682 38.2494 19.5387 37.832C18.0754 37.1639 16.9527 36.6606 16.39 36.71C10.8979 39.264 8.32869 47.3319 8.29424 53.0625L5.07145 43.252L5.98071 36.4629Z" fill="#342C2A"/>
<path fill-rule="evenodd" clip-rule="evenodd" d="M68.3522 15.8921C66.5468 16.0993 65.8198 13.7815 64.0274 15.5152C65.1974 16.7699 66.9406 16.9432 68.3522 15.8921ZM65.0122 22.7702C63.989 21.0036 61.0357 21.9443 61.637 19.1392C63.7717 19.3279 65.1541 20.7774 65.0122 22.7702ZM65.7185 13.822C63.6677 13.3062 62.4094 15.8757 60.6484 13.5958C62.2274 12.323 64.2755 12.3899 65.7185 13.822ZM51.2383 13.4135C50.8391 11.6959 48.1014 11.8302 49.3456 9.59879C51.0958 10.2344 51.8807 11.7653 51.2383 13.4135ZM47.7136 12.4394C47.7905 11.0812 45.7158 10.6733 47.1323 9.23678C48.3013 10.0362 48.5537 11.3264 47.7136 12.4394ZM56.2158 26.4766C54.7852 25.3157 52.6727 26.927 52.2306 24.4514C54.0469 24.001 55.6671 24.7999 56.2158 26.4766ZM71.943 15.281C71.533 12.7989 67.6144 12.7744 69.5964 9.68917C72.034 10.7337 73.0123 12.9791 71.943 15.281ZM76.8025 10.5984C74.821 9.77755 73.1082 12.1867 71.7231 9.62825C73.5367 8.5747 75.5923 8.9417 76.8025 10.5984ZM68.3062 14.5355C67.5364 12.3225 63.9521 12.8303 65.2722 9.74259C67.6664 10.3677 68.9177 12.2871 68.3062 14.5355ZM75.8198 6.86805C73.1797 6.75171 72.404 10.183 69.5992 7.85368C71.144 5.91585 73.6499 5.48895 75.8198 6.86805ZM71.7773 5.02108C70.007 5.26725 69.9865 7.64148 67.7878 6.43813C68.5342 4.96166 70.1365 4.37048 71.7773 5.02108ZM79.1344 13.9398C77.0245 13.464 77.2813 10.5929 74.4819 11.8262C75.2099 13.6847 77.0755 14.5605 79.1344 13.9398ZM63.9429 5.07601C62.6542 5.90237 63.6369 7.77679 61.4024 7.61601C61.3683 6.18848 62.3796 5.15141 63.9429 5.07601ZM68.2628 4.38296C66.4309 5.45948 67.6762 8.10185 64.5951 7.76531C64.6352 5.78903 66.0966 4.40693 68.2628 4.38296ZM65.8973 18.6444C64.0756 18.1281 64.4591 15.626 61.9392 16.5737C62.4733 18.2359 64.0594 19.0907 65.8973 18.6444ZM61.5752 17.6332C60.1549 16.5862 61.4485 14.4886 58.8506 14.515C58.6918 16.1633 59.7736 17.435 61.5752 17.6332ZM42.1868 27.7019C40.3515 27.4787 40.2806 25.0251 38.0331 26.3078C38.8359 27.8202 40.5043 28.4029 42.1868 27.7019ZM49.4729 15.4977C49.2129 17.2208 46.4975 17.2697 47.9015 19.3913C49.5802 18.6479 50.2367 17.0835 49.4729 15.4977ZM47.7791 27.7149C45.848 27.8682 45.1752 25.3726 43.1894 27.1517C44.3806 28.5328 46.2304 28.7819 47.7791 27.7149ZM46.2212 25.2453C44.0512 25.6332 42.963 22.879 40.9447 25.1165C42.4755 26.5495 44.6043 26.6264 46.2212 25.2453ZM51.5205 26.9604C49.6517 26.7213 49.5981 24.2182 47.2965 25.5119C48.1036 27.0598 49.8007 27.6645 51.5205 26.9604ZM54.5761 22.0726C52.918 20.7255 50.4664 22.5919 49.9556 19.7209C52.0622 19.1996 53.9407 20.1273 54.5761 22.0726ZM51.7041 22.7457C49.7416 23.6829 47.8533 21.3242 46.6031 23.996C48.5104 24.9717 50.5763 24.4918 51.7041 22.7457ZM36.8853 36.341C35.9487 37.8514 33.4088 36.9652 33.8551 39.4163C35.7137 39.302 36.9541 38.0751 36.8853 36.341ZM34.3318 47.7254C32.9857 47.6615 32.7804 45.8839 31.2296 46.9355C31.9073 47.9905 33.1553 48.324 34.3318 47.7254ZM36.5078 44.5887C34.548 43.7743 35.3616 41.0241 32.3964 41.7571C32.7393 43.6864 34.3827 44.8488 36.5078 44.5887ZM34.2901 45.2997C32.4706 45.5009 31.7496 43.1646 29.9372 44.9032C31.1099 46.1715 32.8639 46.3523 34.2901 45.2997ZM24.373 44.5852C23.386 43.1407 25.3903 41.5214 22.882 40.747C22.1317 42.2839 22.7124 43.8402 24.373 44.5852ZM45.7684 30.5879C43.6141 30.7587 42.8633 27.975 40.6489 29.9598C41.9777 31.5002 44.0409 31.7778 45.7684 30.5879ZM40.6571 14.8261C42.2404 16.9232 39.3668 19.4702 43.1737 20.4683C44.1796 18.1241 43.1954 15.8342 40.6571 14.8261ZM44.9326 15.4103C45.7483 17.3037 43.0139 18.8006 45.7743 20.2137C47.0175 18.561 46.7049 16.6181 44.9326 15.4103ZM47.5695 20.4489C45.8128 22.1385 42.8113 20.2202 42.528 23.5521C44.9938 23.9605 47.0462 22.7317 47.5695 20.4489ZM38.0489 16.8848C39.3028 18.9474 36.4076 21.056 39.818 22.2898C40.9729 20.2137 40.2893 18.0237 38.0489 16.8848ZM40.104 45.6118C38.6555 44.5492 39.9653 42.4122 37.3219 42.4456C37.1648 44.1228 38.2704 45.4145 40.104 45.6118ZM44.0263 43.636C42.0058 43.278 42.1006 40.5507 39.5163 41.8395C40.3001 43.5666 42.1109 44.3126 44.0263 43.636ZM25.8149 47.9001C26.8734 46.8176 25.4439 45.1864 27.6767 44.8718C28.0646 46.2654 27.3295 47.4967 25.8149 47.9001ZM27.7888 50.2923C28.7774 48.8478 26.7748 47.2276 29.2839 46.4546C30.0319 47.992 29.4507 49.5484 27.7888 50.2923ZM43.3958 46.5819C42.2404 45.9733 42.9186 44.3225 41.0438 44.6126C41.1316 45.8205 42.0698 46.6264 43.3958 46.5819ZM32.9283 50.7732C31.6272 49.9957 32.5313 48.1163 30.3304 48.3415C30.3477 49.7521 31.3824 50.7457 32.9283 50.7732ZM41.3488 48.1703C39.2801 47.5891 39.7075 44.7485 36.8506 45.831C37.4622 47.7164 39.2649 48.682 41.3488 48.1703ZM24.6931 24.6106C24.2208 25.8764 22.1626 25.5429 22.8809 27.3364C24.2684 27.0044 25.0154 25.9129 24.6931 24.6106ZM36.5511 16.6047C35.8919 18.549 32.7452 18.1251 33.9239 20.8244C36.0186 20.2626 37.1025 18.5715 36.5511 16.6047ZM36.5213 20.8413C36.2613 22.5645 33.5464 22.6134 34.9499 24.7355C36.6291 23.9915 37.2851 22.4272 36.5213 20.8413ZM33.2788 30.1705C31.3466 30.3233 30.6738 27.8277 28.6886 29.6068C29.8797 30.9879 31.7296 31.237 33.2788 30.1705ZM36.2283 14.0202C35.7548 15.286 33.6975 14.9519 34.4152 16.746C35.8025 16.4139 36.5495 15.3219 36.2283 14.0202ZM39.4415 29.3142C37.2943 29.2308 36.9389 26.3992 34.4824 28.0969C35.5799 29.7696 37.5749 30.2848 39.4415 29.3142ZM26.1394 18.2514C26.6015 20.2437 29.7763 20.0889 28.3332 22.6768C26.303 21.9393 25.393 20.1633 26.1394 18.2514ZM35.0653 21.8824C33.1786 21.9204 32.8102 24.3999 30.6874 22.869C31.6835 21.4185 33.4456 20.9996 35.0653 21.8824ZM32.4462 15.653C32.0448 17.3536 34.5745 18.2629 32.4636 19.8078C31.1662 18.5755 31.1359 16.8983 32.4462 15.653ZM29.6105 16.1118C30.1598 18.0851 27.2417 19.2505 29.7855 20.9741C31.2459 19.4802 31.202 17.5169 29.6105 16.1118ZM21.8655 24.4858C21.4827 26.5115 18.2734 26.4681 19.8376 29.0271C21.8538 28.2112 22.6977 26.3882 21.8655 24.4858ZM43.8996 39.4727C42.2501 40.2941 40.6121 38.3183 39.5943 40.6017C41.2269 41.4031 42.9706 40.9682 43.8996 39.4727ZM40.7757 36.1892C40.0173 38.1465 36.829 37.5953 37.9107 40.3909C40.0704 39.8976 41.2502 38.2154 40.7757 36.1892Z" fill="#88A927"/>
<path fill-rule="evenodd" clip-rule="evenodd" d="M100 76.8543C90.3689 90.7692 73.4765 99.9995 54.2425 99.9995C35.0089 99.9995 18.1163 90.7692 8.48532 76.8543H100Z" fill="#88A927"/>
<path fill-rule="evenodd" clip-rule="evenodd" d="M54.2424 -7.62939e-06C65.9861 -7.62939e-06 76.8566 3.44077 85.7359 9.28722C78.1241 5.21183 69.2806 2.87655 59.8445 2.87655C31.3325 2.87655 8.21852 24.1822 8.21852 50.4641C8.21852 76.746 31.332 98.0517 59.8445 98.0517C65.9953 98.0517 71.8943 97.058 77.3647 95.239C70.3505 98.2904 62.5134 100 54.2424 100C24.2852 100 0 77.6138 0 50.0002C0 22.3862 24.2852 0.00050354 54.2424 0.00050354V-7.62939e-06Z" fill="#342C2A"/>
<path fill-rule="evenodd" clip-rule="evenodd" d="M56.7125 65.3611C57.1334 67.6949 57.4394 67.4652 57.3614 69.7751C57.2829 72.0844 56.9617 74.0766 56.518 74.6084C56.0744 75.1402 55.0533 74.7722 54.3426 75.4268C53.6325 76.0819 53.9434 76.9407 53.9434 76.9407H57.8939C59.6365 76.9407 60.0758 70.8636 60.6343 67.9496C59.1934 67.1127 57.6908 66.3403 56.7125 65.3611ZM56.225 36.1648C55.4238 38.6868 52.0221 38.4746 50.3098 39.8956C47.8137 41.9673 49.3998 44.9757 52.4235 45.3137C55.4509 45.6517 59.4144 43.4992 60.1067 40.4469C59.3705 44.0504 55.4022 46.524 51.2404 45.6747C51.4918 46.904 51.5828 48.1713 51.6191 49.4375C51.2242 51.5142 50.7795 54.6224 51.0503 57.09C51.4993 61.1769 50.8824 64.1258 51.7241 67.4368C52.5659 70.7482 52.3417 73.7865 51.1066 74.6653C50.5471 75.0638 49.279 75.1027 49.0667 75.7728C48.8549 76.4424 49.0412 77.0431 49.4122 77.1C49.7838 77.1569 52.5681 77.3397 53.5577 76.4269C54.5479 75.5147 54.6801 70.6074 55.0122 69.2198C55.3442 67.8327 55.4758 66.3233 55.939 64.0399C59.6582 67.8143 64.8702 68.9552 68.7308 71.7988C67.2796 70.1186 64.0046 66.0222 64.8838 63.1831C65.322 61.7686 66.6632 60.8368 69.1837 61.3167C69.1837 61.3167 65.7456 60.9212 65.4921 63.602C65.1189 67.5476 70.9615 72.9672 70.7827 73.5948C70.5346 74.4646 67.8034 74.8306 65.0723 73.9608C62.3411 73.0915 60.8515 74.6474 61.0996 75.8832C61.3482 77.1195 62.1922 77.1649 62.4901 77.2108C62.788 77.2563 73.3151 76.9816 75.0528 77.0276C76.1768 77.057 77.5537 77.0825 76.9709 75.6849C76.8447 75.3828 76.6648 74.9395 76.68 74.4691C81.8709 78.3048 89.506 75.0473 91.7799 71.1636C91.7799 71.1636 91.3146 71.3404 90.3916 71.5426C91.82 69.8659 91.8997 67.9111 91.5736 65.9243C91.4734 66.7153 90.7394 67.9725 90.2649 68.6736C91.3937 65.6258 90.013 63.646 87.5267 61.5049C86.3902 60.5263 85.6356 59.1052 86.7699 57.7251C85.4433 58.0157 85.0669 58.9709 85.1091 59.6315C84.7787 59.1362 84.5913 58.7412 84.5913 58.7412C84.5913 58.7412 84.2413 59.64 84.3995 60.5562C83.9873 60.2227 83.7397 59.9785 83.7397 59.9785C83.7397 59.9785 83.619 61.1414 84.8025 62.4906C82.7236 61.1963 84.2115 62.9015 84.991 63.7423C89.91 68.016 83.9412 75.1447 80.1836 72.5947C83.9423 67.6719 82.8189 63.2595 78.4128 59.3139C72.8324 54.3163 63.3292 49.7086 61.6185 43.1671C60.7502 39.8482 62.0795 39.2101 60.2475 36.6281C58.4145 34.0462 56.4731 32.2497 53.7993 32.4429C51.1256 32.6351 50.5433 33.6577 50.046 33.8145C49.5493 33.9713 47.3501 33.4785 46.4482 33.2697C45.5468 33.061 44.6194 33.6682 44.3643 35.3684C44.1086 37.0685 44.9542 38.567 45.6703 39.4243C46.505 40.4244 47.9183 40.2002 49.084 40.5218C51.1705 37.6962 54.5577 38.908 56.225 36.1648Z" fill="#342C2A"/>
<path fill-rule="evenodd" clip-rule="evenodd" d="M31.8552 74.6523C27.6052 73.7576 29.0396 69.6687 29.6674 66.3762C30.416 62.4546 28.9085 58.6838 23.8004 58.9275C21.2625 59.0488 21.9322 61.7631 24.1179 61.1509C25.0988 60.8763 26.6226 61.3022 27.3837 62.5839C28.3874 64.2736 27.5223 66.6753 26.9574 69.1035C25.3534 75.991 29.9101 78.2813 36.4222 76.9387C36.6778 76.9442 36.9498 76.9427 37.2401 76.9327C39.831 76.8463 42.7604 76.9152 42.7604 76.9152C42.7604 76.9152 43.4554 76.9846 43.7181 76.7939C43.9813 76.6036 44.1314 75.8766 43.4364 75.6C43.067 75.4527 42.5708 75.4373 42.1862 75.4557C42.3 75.3624 42.4224 75.255 42.554 75.1322C43.8876 73.8859 43.9808 71.0298 42.3287 69.2128C41.2426 68.018 39.6203 67.9081 38.6366 67.9725C43.6217 66.2454 44.7825 72.4359 45.1465 73.6447C45.5219 74.891 46.0663 76.5352 46.5733 76.7949C47.0803 77.0545 48.7704 77.0545 48.9583 77.0026C49.1463 76.9507 49.3711 76.8468 49.3527 76.3106C49.3337 75.7738 48.7704 75.4967 48.3571 75.5316C47.9443 75.5661 47.7943 75.5316 47.531 74.8735C47.2683 74.2159 47.232 72.8423 47.232 70.147C47.232 67.8297 49.2844 64.8503 49.6024 61.9882C49.9182 59.1402 48.382 58.6628 47.7883 56.5028C47.3398 54.872 48.8375 54.9345 49.5092 53.803C50.1814 52.6721 49.8711 52.1393 49.9507 51.6994C50.0303 51.2595 49.7335 51.1556 49.0109 51.255C48.2877 51.3534 48.1333 51.258 47.9275 51.1302C47.7217 51.0034 47.3804 50.5884 46.8241 50.528C46.4563 50.4881 45.4531 50.5575 44.815 50.6084C44.5599 49.8005 44.0886 48.5233 43.7013 48.6706C43.1385 48.8838 42.7685 50.8311 42.7685 50.8311C42.7685 50.8311 41.3461 49.3771 41.1792 49.7166C41.0129 50.0557 41.4842 51.8896 41.4842 51.8896C41.4842 51.8896 40.5352 53.0371 41.4197 54.5989C42.3969 56.325 42.4403 57.2083 41.7994 58.2783C40.1712 60.9971 37.7574 61.7745 35.1097 63.4432C31.0378 66.0097 29.4285 70.6294 31.8552 74.6523Z" fill="#342C2A"/>
<path fill-rule="evenodd" clip-rule="evenodd" d="M57.7173 74.557C57.7173 74.557 58.629 74.871 58.9432 75.7269C59.0228 75.9441 59.0878 76.1688 59.1414 76.382C58.8251 75.8642 58.3749 75.3584 57.9903 75.232C57.5153 75.0753 57.0354 75.2305 56.8398 75.7833C57.3544 74.8541 58.5504 76.1553 58.7671 76.7619C58.1003 75.8926 56.9162 75.9496 56.5581 76.7939C57.2071 76.019 58.7519 76.8718 59.0309 77.6168L59.3478 77.5459L59.4242 77.5294H59.4247L59.6219 77.4849L59.7698 77.4525L59.9675 77.4085L60.6944 77.2672C60.7296 76.4479 61.4549 75.6619 62.3742 75.4338C61.2377 75.5561 60.7074 76.0374 60.4295 76.3495C60.6365 75.7943 61.2518 75.1442 61.7442 74.7642C61.1072 75.0558 60.1858 75.655 59.9501 76.3056C59.9269 76.37 59.9079 76.4359 59.8927 76.5028C59.9057 75.624 60.4339 74.8221 61.1884 74.4077C60.2492 74.6124 59.7221 75.1372 59.5179 75.7773C59.2828 75.2585 58.7828 74.6693 57.7173 74.557ZM53.3313 76.9002C53.3481 76.9242 53.3644 76.9492 53.3795 76.9746L53.3481 76.8982L53.3313 76.9002ZM54.2663 76.4948C54.2554 76.5947 54.2565 76.699 54.2679 76.8044C54.4661 76.8992 54.6324 77.057 54.7543 77.2607C54.6557 77.0071 54.503 76.734 54.2663 76.4948ZM75.6589 75.7438C75.6589 75.7438 76.8095 75.7139 77.2325 76.8413C77.3685 76.2267 77.9346 75.8412 78.8143 76.1028C77.5586 75.9785 77.6269 77.2607 77.921 77.9393L77.4021 77.9064C77.4167 78.7282 77.0755 78.2599 76.9584 78.0761C76.9541 78.1086 76.9492 78.141 76.9433 78.1745L76.4211 78.3223C76.5403 77.5998 76.2889 76.3375 75.0972 76.7225C75.9081 76.2721 76.5668 76.5517 76.8398 77.1504C76.7098 76.6576 76.3973 76.0739 75.6589 75.7438ZM19.0202 74.3193C19.0202 74.3193 19.8309 74.8161 19.9263 75.7149C19.9502 75.9431 19.9586 76.1752 19.9576 76.3944C19.7768 75.8237 19.4638 75.237 19.1203 75.0333C18.6959 74.7812 18.1899 74.8326 17.864 75.3299C18.5939 74.5325 19.4383 76.0504 19.5001 76.686C19.0648 75.6999 17.8971 75.5077 17.3406 76.2551C18.1629 75.636 19.4576 76.7899 19.5462 77.5738L19.8727 77.5713L19.9511 77.5708L20.1542 77.5693L20.306 77.5683L20.5096 77.5668L21.2525 77.5818C21.4882 76.7904 22.3881 76.1772 23.3394 76.1473C22.2031 76.0289 21.5674 76.3864 21.2203 76.6321C21.5588 76.1353 22.3175 75.6305 22.8907 75.3629C22.1987 75.5141 21.1542 75.9051 20.7642 76.4888C20.7257 76.5467 20.6907 76.6066 20.6597 76.6691C20.8886 75.8162 21.6009 75.1452 22.4374 74.8995C21.4724 74.9025 20.8299 75.3034 20.4738 75.8841C20.3724 75.3299 20.0301 74.6513 19.0204 74.3193H19.0202ZM27.6214 74.9989C27.6214 74.9989 28.7557 75.1801 28.9269 76.363C29.1929 75.7853 29.8304 75.5117 30.6364 75.9291C29.4323 75.5771 29.2226 76.8463 29.3651 77.5648L28.863 77.4375C28.7005 78.2454 28.4665 77.7246 28.3917 77.5229C28.3809 77.5538 28.369 77.5848 28.356 77.6163L27.8121 77.6657C28.084 76.9791 28.1106 75.6959 26.8598 75.8547C27.752 75.5621 28.337 75.957 28.4751 76.5937C28.454 76.0874 28.2736 75.4577 27.6214 74.9989ZM99.9415 76.4718C98.9892 76.4449 98.0483 77.0041 97.7574 77.779L97.0175 77.7206L96.8144 77.7096L96.6627 77.7016L96.4596 77.6912L96.3816 77.6872L96.056 77.6702C96.0224 76.8823 94.8112 75.6545 93.9467 76.2232C94.5545 75.5102 95.7061 75.7713 96.0717 76.7814C96.0549 76.1433 95.3177 74.5784 94.5339 75.3304C94.8936 74.8541 95.4027 74.8331 95.8079 75.1092C96.1367 75.3334 96.4087 75.9371 96.549 76.5173C96.5652 76.2986 96.5733 76.0669 96.5652 75.8377C96.5332 74.9349 95.7581 74.3907 95.7581 74.3907C96.7429 74.7822 97.037 75.4802 97.0993 76.0389C97.4953 75.4807 98.1642 75.1187 99.1279 75.1731C98.2753 75.3688 97.5175 75.996 97.2298 76.8348C97.265 76.7739 97.3046 76.7155 97.3474 76.6596C97.7769 76.1003 98.8468 75.7723 99.5477 75.6629C98.9567 75.8951 98.1642 76.3535 97.7921 76.8298C98.1556 76.6056 98.8148 76.2861 99.9415 76.4718ZM72.7951 75.964C72.7951 75.964 73.9364 75.8207 74.4878 76.8997C74.5512 76.2751 75.069 75.8362 75.9742 76.0095C74.7115 76.0095 74.9282 77.2777 75.2998 77.9233L74.7798 77.9423C74.8903 78.7572 74.4965 78.3263 74.3589 78.155C74.3584 78.1875 74.3573 78.2204 74.3551 78.2539L73.853 78.4531C73.8871 77.7226 73.4906 76.4923 72.3509 76.9926C73.1049 76.4648 73.7918 76.678 74.133 77.2463C73.9467 76.7694 73.568 76.2197 72.7951 75.9645V75.964ZM48.6604 75.9361C47.7406 76.1643 47.0153 76.9502 46.9801 77.77L46.2537 77.9109L46.0554 77.9548L45.9076 77.9877L45.7104 78.0317L45.634 78.0487L45.3171 78.1191C45.0376 77.3741 43.4927 76.5213 42.8443 77.2967C43.2019 76.4524 44.3865 76.3949 45.0533 77.2642C44.8367 76.6576 43.6406 75.3569 43.126 76.2856C43.321 75.7333 43.8015 75.5776 44.276 75.7343C44.6611 75.8612 45.1102 76.3665 45.4276 76.8848C45.374 76.6711 45.3085 76.4469 45.2288 76.2292C44.9152 75.3733 44.003 75.0593 44.003 75.0593C45.068 75.1716 45.5685 75.7608 45.8036 76.2796C46.0078 75.6395 46.5348 75.1147 47.4741 74.91C46.7195 75.3244 46.1909 76.1268 46.1784 77.0056C46.1936 76.9382 46.2125 76.8723 46.2358 76.8079C46.4714 76.1578 47.3929 75.5586 48.0299 75.2665C47.5375 75.6465 46.9227 76.2971 46.7147 76.8518C46.9931 76.5402 47.5234 76.0584 48.6598 75.9361H48.6604ZM86.5571 76.6636C85.6053 76.6371 84.6644 77.1958 84.3735 77.9713L83.6336 77.9128L83.4305 77.9019L83.2783 77.8939L83.0757 77.8834L82.9971 77.8794L82.6716 77.8619C82.6385 77.0745 81.4268 75.8467 80.5628 76.4154C81.1706 75.7019 82.3222 75.9635 82.6878 76.9736C82.6705 76.335 81.9338 74.7707 81.15 75.5226C81.5097 75.0458 82.0183 75.0253 82.424 75.3014C82.7528 75.5256 83.0242 76.1288 83.165 76.709C83.1808 76.4903 83.1889 76.2586 83.1808 76.0294C83.1488 75.1267 82.3742 74.5829 82.3742 74.5829C83.3584 74.9744 83.6526 75.6719 83.7154 76.2312C84.1114 75.6729 84.7803 75.3109 85.744 75.3654C84.8908 75.5606 84.1336 76.1877 83.8454 77.0266C83.8811 76.9657 83.9202 76.9077 83.9629 76.8518C84.393 76.2921 85.4623 75.9645 86.1638 75.8547C85.5728 76.0874 84.7803 76.5457 84.4082 77.0221C84.7717 76.7974 85.4309 76.4778 86.5571 76.6636ZM52.0421 75.6924C52.0421 75.6924 53.1829 75.5491 53.7343 76.6281C53.7506 76.4658 53.7977 76.317 53.8741 76.1872C53.7398 76.1063 53.5875 76.0349 53.4169 75.9785C53.4169 75.9785 53.6699 75.9466 53.9943 76.0254C54.2414 75.7603 54.6557 75.6295 55.2213 75.7378C54.7565 75.7378 54.4921 75.9096 54.3621 76.1588C54.6335 76.2941 54.9103 76.5243 55.1097 76.9142C55.173 76.2896 55.6909 75.8507 56.596 76.0239C55.3334 76.0239 55.5501 77.2922 55.9216 77.9378L55.4016 77.9563C55.5121 78.7717 55.1183 78.3408 54.9807 78.169C54.9802 78.202 54.9791 78.2349 54.977 78.2679L54.4748 78.4671C54.4862 78.2254 54.4504 77.9293 54.3556 77.6587L54.0268 77.6707C54.1368 78.4861 53.7435 78.0547 53.6054 77.8834C53.6049 77.9158 53.6043 77.9488 53.6022 77.9823L53.1 78.1815C53.1341 77.451 52.7376 76.2207 51.5974 76.7215C52.2837 76.2407 52.9148 76.374 53.2793 76.8303L53.3113 76.8164C53.106 76.381 52.7301 75.9201 52.0421 75.6929V75.6924Z" fill="#88A927"/>
<path fill-rule="evenodd" clip-rule="evenodd" d="M82.1467 20.1413C82.7545 18.6359 84.0404 14.522 84.7083 12.1603C85.4873 13.6777 85.5317 14.9559 84.8697 16.1283L85.6931 15.1517C85.8442 16.3745 85.6925 16.739 85.3323 17.3546C84.6791 18.0267 84.0464 18.7123 83.4484 19.4173C82.9641 19.989 82.6358 20.755 82.1467 20.1413ZM76.3528 20.2561C76.3528 20.2561 76.8577 19.8717 77.5976 19.6724C78.4129 18.3807 80.176 18.5859 81.1386 19.4612C82.3796 20.5902 82.1294 21.5768 83.7663 19.6465C85.5875 17.4984 88.0017 15.287 90.0861 13.3052C90.1679 15.5906 89.668 16.4888 88.2628 17.4675L89.8175 16.7629C89.5076 18.2928 89.0922 18.5185 88.1339 19.1577L89.4199 18.7048C89.2693 19.7463 88.5976 20.2951 87.7277 20.6401C88.2829 20.5512 88.9324 20.3385 88.9324 20.3385C88.7796 21.2063 87.8907 21.6248 87.1611 21.7756L88.3018 21.7071C87.5857 22.559 86.7109 22.5705 86.1194 22.7153C85.3535 22.9025 85.2142 23.3204 85.5539 23.7928C87.7916 25.7266 90.2833 28.1048 90.2833 28.1048C90.2833 28.1048 89.2704 27.6485 88.3717 27.1941C89.7059 28.6246 90.5948 30.0971 90.5948 30.0971C90.5948 30.0971 90.3261 29.8395 89.24 29.6213C88.154 29.4031 88.0467 29.4031 88.0467 29.4031C88.0467 29.4031 86.1438 26.2609 85.0257 25.7456C83.9077 25.2308 82.7463 25.2702 80.897 24.2986C79.0477 23.3274 78.3809 21.5334 78.0153 20.9092C77.6496 20.2846 76.3528 20.2561 76.3528 20.2561Z" fill="#342C2A"/>
</svg>
